
<svg viewBox="0 0 24 24" class="help_circle" width="24.000em" height="24.000em" aria-hidden="true" focusable="false" role="img" alt=""><path fill-rule="evenodd" clip-rule="evenodd" d="M12 2.75C6.89137 2.75 2.75 6.89137 2.75 12C2.75 17.1086 6.89137 21.25 12 21.25C17.1086 21.25 21.25 17.1086 21.25 12C21.25 6.89137 17.1086 2.75 12 2.75ZM1.25 12C1.25 6.06294 6.06294 1.25 12 1.25C17.9371 1.25 22.75 6.06294 22.75 12C22.75 17.9371 17.9371 22.75 12 22.75C6.06294 22.75 1.25 17.9371 1.25 12ZM12.3004 7.77792C11.7767 7.68809 11.2381 7.7865 10.78 8.05573C10.3219 8.32496 9.97383 8.74763 9.7975 9.24888C9.66005 9.63962 9.23186 9.84495 8.84112 9.7075C8.45038 9.57005 8.24505 9.14186 8.3825 8.75112C8.67638 7.9157 9.25644 7.21125 10.0199 6.76253C10.7834 6.31382 11.6811 6.14979 12.554 6.29951C13.4268 6.44922 14.2185 6.90302 14.7888 7.58053C15.359 8.25786 15.6712 9.1151 15.67 10.0005C15.6698 11.3984 14.6312 12.3439 13.836 12.874C13.4156 13.1544 13.0004 13.3614 12.6934 13.4979C12.5388 13.5666 12.4089 13.6186 12.3159 13.654C12.2694 13.6717 12.2319 13.6854 12.2049 13.6949L12.1726 13.7063L12.1627 13.7096L12.1594 13.7108L12.1581 13.7112C12.1579 13.7113 12.1572 13.7115 11.92 13L12.1572 13.7115C11.7642 13.8425 11.3395 13.6301 11.2085 13.2372C11.0776 12.8446 11.2895 12.4203 11.6817 12.2889C11.6818 12.2888 11.6827 12.2885 11.6828 12.2885L11.6846 12.2879L11.7024 12.2816C11.7195 12.2756 11.7464 12.2658 11.7819 12.2523C11.853 12.2252 11.9575 12.1834 12.0841 12.1271C12.3396 12.0136 12.6744 11.8456 13.004 11.626C13.7087 11.1562 14.17 10.6019 14.17 10L14.17 9.99888C14.1708 9.46752 13.9835 8.95303 13.6413 8.54653C13.2991 8.14003 12.8241 7.86775 12.3004 7.77792ZM11.25 17C11.25 16.5858 11.5858 16.25 12 16.25H12.01C12.4242 16.25 12.76 16.5858 12.76 17C12.76 17.4142 12.4242 17.75 12.01 17.75H12C11.5858 17.75 11.25 17.4142 11.25 17Z" fill="currentColor"></path></svg>
