
<svg focusable="false" viewBox="0 0 24 24" aria-hidden="true" width="24" height="24" stroke="#121212" fill="none"><path d="M13.8,18.4L13.8,18.4c0,0,3.1-4,2.9-9.1S12,1.5,12,1.5S7.5,4.2,7.3,9.3c-0.2,5.1,2.9,9.1,2.9,9.1l0,0
		  C11.3,17.6,12.7,17.6,13.8,18.4z" stroke-width="1.5" stroke-miterlimit="10" stroke-linecap="round" stroke-linejoin="round"></path><path d="M7.7,13.1l-3.1,3.1c-0.5,0.5-0.7,1.4-0.5,2.1l1.4,4.2l4.3-4.3" stroke-width="1.5" stroke-miterlimit="10" stroke-linecap="round" stroke-linejoin="round"></path><path d="M14.2,18.2l4.3,4.3l1.4-4.2c0.3-0.7,0.1-1.6-0.5-2.1l-3.1-3.1" stroke-width="1.5" stroke-miterlimit="10" stroke-linecap="round" stroke-linejoin="round"></path><path d="M13.7,8.7C13.7,7.7,12.9,7,12,7s-1.7,0.8-1.7,1.7s0.8,1.7,1.7,1.7S13.7,9.6,13.7,8.7z" stroke-width="1.5" stroke-miterlimit="10" stroke-linecap="round" stroke-linejoin="round"></path></svg>
